{"title":"Big.Stan.2008.SWESUB.DVDRiP.XViD -Lindoff","uid":5742472,"size":1466281984,"categoryP":"video","categoryS":"movies","magnet":"?xt=urn:btih:873523c017ee7de826702d304d23e8d2f967615d&amp;dn=Big.Stan.2008.SWESUB.DVDRiP.XViD+-Lindoff&amp;tr=udp%3A%2F%2Ftracker.openbittorrent.com%3A80&amp;tr=udp%3A%2F%2Fopen.demonii.com%3A1337&amp;tr=udp%3A%2F%2Ftracker.coppersurfer.tk%3A6969&amp;tr=udp%3A%2F%2Fexodus.desync.com%3A6969","seeders":0,"leechers":0,"uploader":"Lindoff41","files":2,"time":1281084983,"description":"Big Stan (2007)\n\nVad ska en patetisk ynkedom till karl ta sig till som stÃƒÂ¥r i begrepp att avtjÃƒÂ¤na \n\nsitt fÃƒÂ¤ngelsestraff tillsammans med vÃƒÂ¥ldtÃƒÂ¤ktsmÃƒÂ¤n, barnmisshandlare och \n\nseriemÃƒÂ¶rdare? Jo, han sÃƒÂ¶ker upp fÃƒÂ¶rsta bÃƒÂ¤sta skorpionÃƒÂ¤tande kung fu-mÃƒÂ¤stare och \n\nlÃƒÂ¤r sig lite seriÃƒÂ¶st sjÃƒÂ¤lvfÃƒÂ¶rsvar i vÃƒÂ¤rsta Kill Bill-stil!\n\nFakta om filmen\nOriginaltitel\nBig Stan\n\nLand, ÃƒÂ¥r, lÃƒÂ¤ngd\nUSA ÃƒÂ¥r 2007\n\nRegissÃƒÂ¶r\nRob Schneider\n\nManus\nJosh Lieb\n\nSkÃƒÂ¥despelare\nRob Schneider - Big Stan\nDavid Carradine - The Master\nJennifer Morrison - Mindy\nScott Wilson - Warden Gasque\nRichard Kind - Mal\nSally Kirkland - Madame Foreman\nM. Emmet Walsh - Lew Popper\nHenry Gibson - Shorts\nKevin Gage - Bullard\nBob Sapp - Big Raymond\nBrandon T. Jackson - D'Shaun\nDan Haggerty - Tubby\nRichard Riehle - Judge Perry\nMarcia Wallace - Alma\nTsuyoshi Abe - Dang\nSalvator Xuereb - Patterson\nRandy Couture - Carnahan\nJim Cody Williams - Tyler\nDon Frye - Nation Member\nDiego Corrales - Julio\nBrandon Molale - Piken\n\nShannon Makhanian - CASTING\n\nVictor Hammer - FOTO\n\nGreg Babor - Klippning\n\nRichard Halsey - Klippning\n\nBonnie Stauch - Kostym\n\nGary Coppola - Ljud\n\n\n\n\n \nFormat                           : AVI\nFormat/Info                      : Audio Video Interleave\nFile size                        : 699 MiB\nDuration                         : 49mn 38s\nOverall bit rate                 : 1 967 Kbps\nWriting application              : FairUse Wizard - http://fairusewizard.com\nWriting library                  : The best and REALLY easy backup tool\n\nVideo\nID                               : 0\nFormat                           : MPEG-4 Visual\nFormat profile                   : Advanced Simple@L5\nFormat settings, BVOP            : Yes\nFormat settings, QPel            : No\nFormat settings, GMC             : No warppoints\nFormat settings, Matrix          : Default (MPEG)\nMuxing mode                      : Packed bitstream\nCodec ID                         : XVID\nCodec ID/Hint                    : XviD\nDuration                         : 49mn 38s\nBit rate                         : 1 510 Kbps\nWidth                            : 704 pixels\nHeight                           : 368 pixels\nDisplay aspect ratio             : 1.913\nFrame rate                       : 25.000 fps\nColor space                      : YUV\nChroma subsampling               : 4:2:0\nBit depth                        : 8 bits\nScan type                        : Progressive\nBits/(Pixel*Frame)               : 0.233\nStream size                      : 536 MiB (77%)\nWriting library                  : XviD 1.2.0.dev47 (UTC 2006-11-01)\n\nAudio\nID                               : 1\nFormat                           : AC-3\nFormat/Info                      : Audio Coding 3\nMode extension                   : CM (complete main)\nCodec ID                         : 2000\nDuration                         : 49mn 38s\nBit rate mode                    : Constant\nBit rate                         : 448 Kbps\nChannel(s)                       : 6 channels\nChannel positions                : Front: L C R, Side: L R, LFE\nSampling rate                    : 48.0 KHz\nStream size                      : 159 MiB (23%)\nAlignment                        : Split accross interleaves\nInterleave, duration             : 40 ms (1.00 video frame)\nInterleave, preload duration     : 500 ms\n\n","torrent":{"xt":"urn:btih:873523c017ee7de826702d304d23e8d2f967615d","amp;dn":"Big.Stan.2008.SWESUB.DVDRiP.XViD+-Lindoff","amp;tr":["udp%3A%2F%2Ftracker.openbittorrent.com%3A80","udp%3A%2F%2Fopen.demonii.com%3A1337","udp%3A%2F%2Ftracker.coppersurfer.tk%3A6969","udp%3A%2F%2Fexodus.desync.com%3A6969"],"infoHash":"873523c017ee7de826702d304d23e8d2f967615d","infoHashBuffer":{"type":"Buffer","data":[135,53,35,192,23,238,125,232,38,112,45,48,77,35,232,210,249,103,97,93]},"announce":[],"urlList":[]}}